 <svg version="1.0" xmlns="http://www.w3.org/2000/svg"  width="264.000000pt" height="264.000000pt" viewBox="0 0 264.000000 264.000000"  preserveAspectRatio="xMidYMid meet">  <g transform="translate(0.000000,264.000000) scale(0.100000,-0.100000)" fill="#000000" stroke="none"> <path d="M1005 2286 c-134 -58 -140 -292 -10 -421 71 -71 162 -82 227 -27 122 103 73 358 -84 436 -58 29 -88 32 -133 12z"/> <path d="M1605 2290 c-46 -14 -113 -76 -139 -129 -53 -104 -54 -208 -4 -289 23 -37 84 -72 125 -72 77 1 177 89 210 183 50 149 -11 302 -125 313 -20 2 -51 -1 -67 -6z"/> <path d="M655 1890 c-47 -19 -69 -58 -73 -129 -3 -57 0 -75 21 -117 34 -65 71 -102 125 -126 114 -51 210 42 182 177 -27 129 -164 233 -255 195z"/> <path d="M1975 1881 c-52 -26 -65 -37 -103 -89 -83 -116 -52 -267 59 -287 71 -13 166 51 209 140 23 48 27 146 7 184 -31 61 -107 84 -172 52z"/> <path d="M1280 1682 c-185 -62 -320 -188 -429 -401 -58 -112 -86 -207 -76 -257 12 -65 84 -124 153 -124 16 0 111 20 211 45 100 25 204 45 231 45 27 0 131 -20 231 -45 100 -25 195 -45 211 -45 71 0 141 58 152 127 9 52 -15 135 -70 245 -91 183 -210 309 -361 380 -102 48 -174 56 -253 30z"/> <path d="M680 470 c0 -80 3 -100 14 -100 10 0 16 14 18 43 3 41 4 42 43 45 51 4 65 17 65 58 0 41 -21 54 -89 54 l-51 0 0 -100z m91 80 c28 -15 25 -58 -5 -72 -37 -16 -56 -4 -56 35 0 48 18 59 61 37z"/> <path d="M1292 558 c-7 -7 -12 -25 -12 -40 0 -23 7 -31 38 -44 64 -28 67 -31 67 -55 0 -20 -6 -25 -33 -27 -22 -2 -34 2 -38 12 -7 17 -34 22 -34 7 0 -21 34 -41 69 -41 44 0 74 27 69 61 -3 24 -12 30 -70 53 -43 17 -51 48 -19 66 25 13 27 13 45 -6 9 -8 24 -14 33 -12 15 3 15 4 -1 21 -20 20 -95 24 -114 5z"/> <path d="M1470 551 c0 -11 -6 -22 -12 -25 -10 -5 -10 -7 0 -12 7 -4 12 -27 12 -63 0 -31 5 -62 12 -69 15 -15 58 -16 58 -2 0 6 -9 10 -20 10 -18 0 -20 7 -20 60 0 53 2 60 20 60 11 0 20 5 20 10 0 6 -9 10 -20 10 -13 0 -20 7 -20 20 0 11 -7 20 -15 20 -8 0 -15 -9 -15 -19z"/> <path d="M850 472 c0 -85 16 -102 91 -101 l59 2 0 78 c0 64 -3 79 -15 79 -12 0 -15 -13 -15 -58 0 -63 -11 -82 -47 -82 -30 0 -43 28 -43 89 0 39 -4 51 -15 51 -12 0 -15 -13 -15 -58z"/> <path d="M1040 448 c0 -63 3 -78 15 -78 11 0 15 11 15 43 0 63 10 87 36 93 39 10 27 22 -21 22 l-45 -1 0 -79z"/> <path d="M1160 448 c0 -63 3 -78 15 -78 11 0 15 11 15 43 0 63 10 87 36 93 39 10 27 22 -21 22 l-45 -1 0 -79z"/> <path d="M1598 516 c-28 -21 -39 -61 -27 -96 13 -36 36 -50 82 -50 69 0 105 90 54 138 -26 25 -82 29 -109 8z m86 -22 c34 -34 13 -104 -32 -104 -38 0 -52 17 -52 60 0 20 5 41 12 48 17 17 54 15 72 -4z"/> <path d="M1770 448 c0 -63 3 -78 15 -78 11 0 15 11 15 43 0 63 10 87 36 93 39 10 27 22 -21 22 l-45 -1 0 -79z"/> <path d="M1917 518 c-41 -32 -39 -115 3 -138 30 -16 85 -12 103 8 21 23 21 32 3 32 -8 0 -16 -7 -20 -15 -7 -18 -57 -20 -74 -3 -28 28 -13 38 53 38 59 0 65 2 65 20 0 33 -44 70 -83 70 -18 0 -41 -6 -50 -12z m91 -35 c14 -23 14 -23 -37 -23 -35 0 -51 4 -51 13 0 41 63 47 88 10z"/> </g> </svg> 